<?xml version="1.0" standalone="yes"?>

<svg version="1.1" viewBox="0.0 0.0 400.0 400.0" fill="none" stroke="none" stroke-linecap="square" stroke-miterlimit="10" xmlns="http://www.w3.org/2000/svg" xmlns:xlink="http://www.w3.org/1999/xlink"><clipPath id="p.0"><path d="m0 0l400.0 0l0 400.0l-400.0 0l0 -400.0z" clip-rule="nonzero"></path></clipPath><g clip-path="url(#p.0)"><path fill="#000000" fill-opacity="0.0" d="m0 0l400.0 0l0 400.0l-400.0 0z" fill-rule="nonzero"></path><path fill="#f8eee7" d="m-13.952756 0l413.95273 0l0 400.0l-413.95273 0z" fill-rule="nonzero"></path><path fill="#000000" fill-opacity="0.0" d="m102.46553 324.37796c-11.448212 0 -20.728828 -9.280609 -20.728828 -20.728851l0 -82.92029c0 -11.448212 -9.280609 -20.72882 -20.728828 -20.72882c11.448219 0 20.728828 -9.280609 20.728828 -20.728836l0 -82.92029l0 0c0 -11.448219 9.280617 -20.728828 20.728828 -20.728828l195.06895 0c5.4976196 0 10.770081 2.1839218 14.657471 6.071335c3.8874207 3.8874054 6.07135 9.159866 6.07135 14.657494l0 82.92029c0 11.448227 9.280609 20.728836 20.72882 20.728836c-11.448212 0 -20.72882 9.280609 -20.72882 20.72882l0 82.92029c0 11.448242 -9.280609 20.728851 -20.72882 20.728851z" fill-rule="nonzero"></path><path fill="#000000" fill-opacity="0.0" d="m102.46553 324.37796c-11.448212 0 -20.728828 -9.280609 -20.728828 -20.728851l0 -82.92029c0 -11.448212 -9.280609 -20.72882 -20.728828 -20.72882c11.448219 0 20.728828 -9.280609 20.728828 -20.728836l0 -82.92029l0 0c0 -11.448219 9.280617 -20.728828 20.728828 -20.728828m195.06895 0c5.4976196 0 10.770081 2.1839218 14.657471 6.071335c3.8874207 3.8874054 6.07135 9.159866 6.07135 14.657494l0 82.92029c0 11.448227 9.280609 20.728836 20.72882 20.728836c-11.448212 0 -20.72882 9.280609 -20.72882 20.72882l0 82.92029c0 11.448242 -9.280609 20.728851 -20.72882 20.728851" fill-rule="nonzero"></path><path stroke="#a5a5af" stroke-width="24.0" stroke-linejoin="round" stroke-linecap="butt" d="m102.46553 324.37796c-11.448212 0 -20.728828 -9.280609 -20.728828 -20.728851l0 -82.92029c0 -11.448212 -9.280609 -20.72882 -20.728828 -20.72882c11.448219 0 20.728828 -9.280609 20.728828 -20.728836l0 -82.92029l0 0c0 -11.448219 9.280617 -20.728828 20.728828 -20.728828m195.06895 0c5.4976196 0 10.770081 2.1839218 14.657471 6.071335c3.8874207 3.8874054 6.07135 9.159866 6.07135 14.657494l0 82.92029c0 11.448227 9.280609 20.728836 20.72882 20.728836c-11.448212 0 -20.72882 9.280609 -20.72882 20.72882l0 82.92029c0 11.448242 -9.280609 20.728851 -20.72882 20.728851" fill-rule="nonzero"></path><path fill="#000000" fill-opacity="0.0" d="m123.19685 53.385826l153.60628 0l0 277.6063l-153.60628 0z" fill-rule="nonzero"></path><path fill="#194d47" d="m142.02374 117.3827q12.328125 -2.859375 22.890625 -2.859375q10.5625 0 17.8125 0.65625l0 55.000008q4.625 -3.296875 12.3125 -5.828125q7.703125 -2.53125 14.75 -2.53125q23.984375 0 33.65625 12.328125q9.6875 12.3125 9.6875 42.015625q0 16.5 -4.515625 28.5q-4.5 11.98436 -12.203125 18.35936q-14.53125 12.328125 -34.328125 12.328125q-14.953125 0 -29.46875 -7.484375q-4.1875 5.71875 -9.6875 5.71875l-11.0 0l0 -131.78123q-7.703125 -2.640625 -12.09375 -7.484375l2.1875 -16.937508zm58.3125 135.51562q21.109375 0 21.109375 -35.40625q0 -18.703125 -3.625 -25.40625q-3.625 -6.71875 -12.65625 -6.71875q-13.640625 0 -22.4375 7.265625l0 56.53125q9.46875 3.734375 17.609375 3.734375z" fill-rule="nonzero"></path></g></svg>

